<svg id="Capa_1" enable-background="new 0 0 512 512" height="512" viewBox="0 0 512 512" width="512" xmlns="http://www.w3.org/2000/svg"><g><path d="m350.711 109.848v-79.663h29.189v-30.185h-154.225v30.185h24.854v78.635c0 35.266-7.021 69.775-20.87 102.568-.086.204-.179.405-.266.609h142.045c-13.747-32.655-20.727-66.988-20.727-102.149z"/><path d="m207.653 253.005c2.756 8.969 5.909 17.85 9.452 26.607h195.182c-9.687-11.784-18.345-24.274-25.906-37.431h-172.102c-2.125 3.658-4.332 7.267-6.626 10.824z"/><path d="m440.614 309.481v.315h-209.915c10.329 24.049 15.773 51.423 15.773 79.775 0 30.521-6.29 60.019-18.189 85.305-4.645 9.871-10.069 18.923-16.159 27.06 8.824 3.77 18.078 6.976 27.63 9.546l1.926.518h116.751l1.926-.518c32.988-8.873 61.356-24.693 82.036-45.75 22.049-22.451 33.703-49.16 33.703-77.24 0-28.549-12.573-56.471-35.482-79.011z"/><path d="m36.129 380.501c-.142 3.007-.225 6.03-.225 9.071 0 10.799.919 21.335 2.646 31.449h176.277c1.726-10.113 2.646-20.649 2.646-31.449 0-3.041-.083-6.064-.225-9.071z"/><path d="m213.319 350.316c-2.782-12.746-6.934-24.831-12.384-35.895-23.337-47.375-35.842-99.269-36.243-150.246h24.196v-30.185h-124.399v30.185h24.195c-.401 50.977-12.906 102.871-36.243 150.246-5.45 11.063-9.601 23.149-12.384 35.895z"/><path d="m46.588 451.205c9.78 26.254 25.785 47.307 45.997 58.818l3.473 1.977h61.26l3.473-1.978c20.212-11.511 36.217-32.564 45.997-58.818h-160.2z"/></g></svg>